<svg width="20" height="20" viewBox="0 0 28 31" fill="none" xmlns="http://www.w3.org/2000/svg">
<path d="M8.39953 31C7.6877 31 7.08265 30.7284 6.58437 30.1852C6.0861 29.6421 5.83696 28.9825 5.83696 28.2065C5.83696 27.4305 6.0861 26.771 6.58437 26.2278C7.08265 25.6846 7.6877 25.413 8.39953 25.413C9.08762 25.413 9.68674 25.6846 10.1969 26.2278C10.707 26.771 10.9621 27.4305 10.9621 28.2065C10.9621 28.9825 10.713 29.6421 10.2147 30.1852C9.7164 30.7284 9.11135 31 8.39953 31ZM22.636 31C21.9242 31 21.3191 30.7284 20.8209 30.1852C20.3226 29.6421 20.0734 28.9825 20.0734 28.2065C20.0734 27.4305 20.3226 26.771 20.8209 26.2278C21.3191 25.6846 21.9242 25.413 22.636 25.413C23.3241 25.413 23.9232 25.6846 24.4334 26.2278C24.9435 26.771 25.1986 27.4305 25.1986 28.2065C25.1986 28.9825 24.9494 29.6421 24.4512 30.1852C23.9529 30.7284 23.3478 31 22.636 31ZM6.54878 5.39299L10.4638 14.239H20.7141L25.163 5.39299H6.54878ZM8.04361 22.9299C7.04706 22.9299 6.3293 22.5678 5.89035 21.8436C5.45139 21.1193 5.45732 20.3045 5.90814 19.3993L8.18598 14.821L2.77611 2.32791H1.03215C0.747415 2.32791 0.504209 2.21151 0.302525 1.97872C0.100842 1.74593 0 1.46141 0 1.12516C0 0.814768 0.100842 0.549646 0.302525 0.329787C0.504209 0.109929 0.759279 0 1.06774 0H3.48794C3.70149 0 3.89131 0.0581977 4.0574 0.174593C4.22349 0.290989 4.35399 0.452649 4.4489 0.659574L5.48105 3.06508H26.4443C27.2035 3.06508 27.684 3.31727 27.8857 3.82165C28.0874 4.32603 28.0221 4.88861 27.69 5.50939L22.8851 14.9374C22.6479 15.3771 22.3157 15.7587 21.8886 16.082C21.4615 16.4053 20.9988 16.567 20.5005 16.567H9.7164L7.72329 20.602H24.1664C24.4512 20.602 24.6944 20.7184 24.8961 20.9512C25.0977 21.184 25.1986 21.4556 25.1986 21.766C25.1986 22.1022 25.0977 22.3803 24.8961 22.6001C24.6944 22.82 24.4393 22.9299 24.1308 22.9299H8.04361Z" fill="#EDC42C"/>
</svg>
